<?xml version="1.0"?>
<svg width="640" height="512" xmlns="http://www.w3.org/2000/svg" xmlns:svg="http://www.w3.org/2000/svg">
 <!--!Font Awesome Free 6.6.0 by @fontawesome - https://fontawesome.com License - https://fontawesome.com/license/free Copyright 2024 Fonticons, Inc.-->
 <g class="layer">
  <title>Layer 1</title>
  <path d="m524.5,69.8a1.5,1.5 0 0 0 -0.8,-0.7a485.1,485.1 0 0 0 -119.6,-37.1a1.8,1.8 0 0 0 -1.9,0.9a337.5,337.5 0 0 0 -14.9,30.6a447.8,447.8 0 0 0 -134.4,0a309.5,309.5 0 0 0 -15.1,-30.6a1.9,1.9 0 0 0 -1.9,-0.9a483.7,483.7 0 0 0 -119.8,37.1a1.7,1.7 0 0 0 -0.8,0.7c-76.2,113.9 -97.1,224.9 -86.9,334.6a2,2 0 0 0 0.8,1.4a487.7,487.7 0 0 0 146.8,74.1a1.9,1.9 0 0 0 2.1,-0.7a348.2,348.2 0 0 0 30,-48.8a1.9,1.9 0 0 0 -1,-2.6a321.2,321.2 0 0 1 -45.9,-21.9a1.9,1.9 0 0 1 -0.2,-3.1c3.1,-2.3 6.2,-4.7 9.1,-7.1a1.8,1.8 0 0 1 1.9,-0.3c96.2,43.9 200.4,43.9 295.5,0a1.8,1.8 0 0 1 1.9,0.2c2.9,2.4 6,4.9 9.1,7.2a1.9,1.9 0 0 1 -0.2,3.1a301.4,301.4 0 0 1 -45.9,21.8a1.9,1.9 0 0 0 -1,2.6a391.1,391.1 0 0 0 30,48.8a1.9,1.9 0 0 0 2.1,0.7a486,486 0 0 0 147.2,-74.1a1.9,1.9 0 0 0 0.8,-1.4c12.2,-126.7 -20.6,-236.8 -87,-334.5zm-302,267.8c-29,0 -52.8,-26.6 -52.8,-59.2s23.4,-59.3 52.8,-59.3c29.7,0 53.3,26.8 52.8,59.2c0,32.7 -23.4,59.3 -52.8,59.3zm195.4,0c-29,0 -52.8,-26.6 -52.8,-59.2s23.3,-59.3 52.8,-59.3c29.7,0 53.3,26.8 52.8,59.2c0,32.7 -23.2,59.3 -52.8,59.3z" fill="#edca81" id="svg_1"/>
 </g>
</svg>