<?xml version="1.0" encoding="UTF-8" standalone="no"?>
<!-- Created with Inkscape (http://www.inkscape.org/) -->

<svg
   width="35mm"
   height="56mm"
   viewBox="0 0 35 56"
   version="1.1"
   id="svg1"
   xml:space="preserve"
   inkscape:version="1.3.2 (091e20e, 2023-11-25, custom)"
   sodipodi:docname="fleur_lotus.svg"
   xmlns:inkscape="http://www.inkscape.org/namespaces/inkscape"
   xmlns:sodipodi="http://sodipodi.sourceforge.net/DTD/sodipodi-0.dtd"
   xmlns:xlink="http://www.w3.org/1999/xlink"
   xmlns="http://www.w3.org/2000/svg"
   xmlns:svg="http://www.w3.org/2000/svg"><sodipodi:namedview
     id="namedview1"
     pagecolor="#ffffff"
     bordercolor="#666666"
     borderopacity="1.0"
     inkscape:showpageshadow="2"
     inkscape:pageopacity="0.0"
     inkscape:pagecheckerboard="0"
     inkscape:deskcolor="#d1d1d1"
     inkscape:document-units="mm"
     showgrid="false"
     inkscape:zoom="0.74029882"
     inkscape:cx="397.13693"
     inkscape:cy="561.25984"
     inkscape:window-width="1920"
     inkscape:window-height="1027"
     inkscape:window-x="1912"
     inkscape:window-y="-8"
     inkscape:window-maximized="1"
     inkscape:current-layer="layer1" /><defs
     id="defs1"><clipPath
       clipPathUnits="userSpaceOnUse"
       id="clipPath11"><use
         x="0"
         y="0"
         xlink:href="#g10"
         id="use11" /></clipPath><clipPath
       clipPathUnits="userSpaceOnUse"
       id="clipPath13"><path
         style="display:inline;fill:none;stroke:#edca81;stroke-width:0.264583px;stroke-linecap:butt;stroke-linejoin:miter;stroke-opacity:1"
         d="m 111.52017,176.80469 -1.95858,-1.13723 -1.57951,-8.46614 -2.96946,-9.35066 -0.88453,-5.87576 -0.18954,-5.87575 -0.12636,-1.76904 -1.83222,0.6318 -2.274474,-2.33766 -0.631804,-1.01088 -2.779924,1.20043 -4.485788,-0.63181 -2.527205,-1.32679 -1.832226,-1.07406 1.074065,-0.25272 1.389962,-1.83222 1.32678,-0.9477 2.274485,-0.18955 -2.021763,-1.83222 -1.579502,-2.33766 -1.263602,-2.84311 -0.821346,-1.32678 2.716747,0.25272 1.453142,0.37908 1.958583,0.82134 0.442262,0.3159 -0.694981,-2.33766 0.315899,-1.83223 -0.126357,-2.59038 3.664445,1.83222 0.379079,-2.5272 -0.189537,-1.64268 4.04352,2.27448 0.88452,-0.88452 0.50544,-1.07406 0.69498,0.88452 h 0.37908 l 2.02177,-1.89541 0.88452,1.45315 1.45314,1.51632 1.38997,-0.9477 2.59038,-1.20042 -0.12636,1.2636 0.69498,1.83222 0.44226,1.64268 0.0632,0.75817 1.76905,-0.82135 2.8431,-0.75816 0.9477,-0.25272 -0.75816,1.32679 -0.6318,2.96946 -0.56862,1.95858 -0.88452,1.45315 -0.56862,1.13724 1.13724,-0.0632 1.5795,0.50544 1.89541,0.18954 2.27448,0.18954 -0.56862,1.20042 -1.95858,2.14813 -1.64269,1.38996 -1.51632,0.9477 -1.2636,0.37908 -0.3159,0.56862 -1.45315,0.69498 -1.95858,0.31591 -2.5272,-0.44227 -1.07407,-0.75816 -0.37908,-0.44226 -0.44226,1.57951 -0.82134,1.07406 -0.9477,0.75816 -0.25272,0.3159 v 2.5272 l 0.18954,1.95859 -0.12636,2.02176 0.56862,3.66445 0.56862,3.60126 0.82134,2.90629 1.38996,4.67533 1.01089,3.60127 0.6318,2.8431 0.75816,3.22219 z"
         id="path13" /></clipPath></defs><g
     inkscape:label="Calque 1"
     inkscape:groupmode="layer"
     id="layer1"><path
       style="fill:#edca81"
       d="m 109.29101,176.33358 -0.2905,-0.35813 0.29729,0.17917 0.29729,0.17917 -0.15317,-0.24782 c -0.0842,-0.13631 -0.23089,-0.19979 -0.32589,-0.14108 -0.095,0.0587 -0.49323,7.3e-4 -0.88496,-0.12886 l -0.71223,-0.23561 -0.67543,-0.7125 -0.67542,-0.7125 -0.32999,0.12662 -0.32999,0.12663 v -0.23431 -0.23431 h -0.50935 -0.50935 l 0.1107,0.42333 0.11071,0.42333 h -0.24885 -0.24884 l 0.12177,-0.19704 c 0.067,-0.10837 0.0226,-0.25832 -0.0986,-0.33323 l -0.22036,-0.13619 0.0582,0.17448 c 0.032,0.096 -0.0371,0.21211 -0.15351,0.25811 -0.11642,0.046 -0.63018,0.40318 -1.14169,0.79375 -0.51151,0.39057 -1.08174,0.71012 -1.26717,0.71012 h -0.33716 l 1.05551,-0.71607 c 0.58053,-0.39384 1.27797,-0.95634 1.54986,-1.24999 l 0.49435,-0.53392 -0.44451,-0.14108 c -0.24448,-0.0776 -0.39536,-0.22059 -0.3353,-0.31777 l 0.10919,-0.17669 -0.45672,0.11944 -0.45672,0.11943 0.13252,-0.21443 0.13253,-0.21443 -0.55422,0.10595 -0.55422,0.10594 0.13758,-0.22261 0.13759,-0.22262 -0.40199,0.10512 c -0.22109,0.0578 -0.58682,0.006 -0.81274,-0.1147 l -0.41075,-0.21983 -0.45755,0.11965 -0.457556,0.11965 v 0.41114 0.41114 l -0.225914,-0.13962 -0.225913,-0.13962 -0.109843,0.42004 -0.109843,0.42004 -0.402696,-0.10531 -0.402697,-0.10531 0.118079,-0.19105 c 0.06494,-0.10508 0.182934,-0.15699 0.262202,-0.11535 0.192356,0.10105 0.881887,-0.63632 0.733655,-0.78455 -0.06381,-0.0638 -0.305496,-0.0146 -0.537071,0.10931 l -0.421046,0.22534 0.124089,-0.20078 0.124089,-0.20078 -0.599944,-0.0171 -0.599944,-0.0171 -0.221987,0.46131 c -0.625926,1.30072 -0.766449,2.36133 -0.166284,1.25505 l 0.315785,-0.58208 0.0085,0.49578 c 0.0047,0.27268 -0.165599,0.71708 -0.378354,0.98755 l -0.386829,0.49177 -0.259617,-0.16045 -0.259617,-0.16045 0.253662,-1.03877 c 0.139514,-0.57132 0.343365,-1.15366 0.453001,-1.29408 0.109637,-0.14042 0.144891,-0.34341 0.07834,-0.45109 l -0.120997,-0.19577 -1.431808,0.52145 -1.431809,0.52145 -1.31278,-0.13904 -1.312781,-0.13904 -0.217624,0.70367 -0.217625,0.70368 0.05243,-0.74083 0.05243,-0.74083 -0.66178,-0.0146 -0.661781,-0.0146 0.09888,0.37812 c 0.05438,0.20797 0.231462,0.48816 0.393507,0.62264 0.162044,0.13449 0.294626,0.42037 0.294626,0.63529 v 0.39077 l -0.295997,-0.11358 -0.295996,-0.11359 -0.238952,-0.94896 c -0.131423,-0.52193 -0.183103,-1.03933 -0.114845,-1.14977 l 0.124107,-0.20081 -0.488742,-0.0329 c -0.268808,-0.0181 -0.703054,-0.0145 -0.964992,0.008 l -0.47625,0.0409 v -0.90177 -0.90178 l 0.353146,0.52335 c 0.19423,0.28784 0.360918,0.53533 0.370417,0.54997 0.0095,0.0146 0.244315,0.0965 0.521814,0.18199 l 0.504544,0.15537 -0.87496,-1.22186 c -0.481229,-0.67203 -0.874961,-1.40125 -0.874961,-1.62049 v -0.39861 l 1.073701,-0.49745 1.073702,-0.49746 -1.073702,-0.14767 c -0.590535,-0.0812 -1.073701,-0.22946 -1.073701,-0.32944 v -0.18177 l 1.217084,0.0277 c 1.528558,0.0348 2.038573,-0.13377 2.490103,-0.8229 0.197115,-0.30083 0.263242,-0.48816 0.146948,-0.41629 l -0.211442,0.13068 -0.118769,-0.30951 -0.118768,-0.3095 0.216852,-0.13403 0.216853,-0.13402 -0.129373,-0.33714 -0.129372,-0.33714 0.468826,0.41147 c 0.257855,0.22631 0.399208,0.2924 0.314117,0.14688 l -0.154709,-0.26458 0.277075,-0.003 0.277075,-0.003 -0.3175,-0.20209 -0.3175,-0.20209 0.684482,-0.13794 0.684481,-0.13794 -0.11489,-0.1859 -0.11489,-0.18589 1.123742,0.003 1.123742,0.003 -0.3175,0.20518 -0.3175,0.20519 0.356637,0.003 c 0.196151,0.002 0.600963,-0.0897 0.899584,-0.20319 l 0.542946,-0.20643 v 0.20643 c 0,0.11354 0.148496,0.20643 0.329992,0.20643 h 0.329992 l -0.15103,0.24437 -0.151029,0.24437 0.247823,-0.15316 c 0.136303,-0.0842 0.192608,-0.24251 0.125122,-0.3517 l -0.122702,-0.19854 0.3297,-0.12651 c 0.181335,-0.0696 0.277001,-0.21179 0.212591,-0.31601 -0.06441,-0.10422 -0.02516,-0.18949 0.08723,-0.18949 h 0.204342 l -0.105827,-0.40468 c -0.05821,-0.22258 -0.284203,-0.59615 -0.502218,-0.83016 -0.218014,-0.23401 -0.443836,-0.68713 -0.501826,-1.00692 -0.05799,-0.3198 -0.227887,-0.65809 -0.37755,-0.75177 l -0.272113,-0.17032 -0.06894,0.31452 c -0.03791,0.17298 -0.152818,0.26267 -0.255339,0.19931 l -0.186403,-0.1152 0.127278,-0.33168 0.127277,-0.33168 -0.466913,0.28554 -0.466914,0.28554 -0.263875,-0.35516 -0.263875,-0.35517 -0.305317,0.19007 -0.305317,0.19007 -0.111671,-0.45421 c -0.06142,-0.24982 -0.25192,-0.50058 -0.423334,-0.55724 l -0.311661,-0.10303 0.247424,0.299 0.247424,0.29901 -1.887841,-0.0679 -1.887841,-0.0679 v 0.22669 c 0,0.12468 -0.142875,0.22669 -0.3175,0.22669 h -0.3175 v -0.3175 -0.3175 h -0.635 -0.635 v -0.21167 c 0,-0.11642 0.214313,-0.22116 0.47625,-0.23277 l 0.47625,-0.0211 -0.529166,-0.17945 -0.529167,-0.17946 2.8575,0.0632 2.8575,0.0632 1.666278,0.65396 c 1.699373,0.66694 2.672889,1.3599 2.672889,1.90258 0,0.16663 0.246564,0.59599 0.54792,0.95413 l 0.547919,0.65117 -0.124201,0.62101 c -0.132585,0.66292 -1.122773,1.89789 -1.622551,2.02366 -2.642584,0.66499 -4.514328,1.39077 -5.275754,2.04569 -0.174625,0.15019 -1.031875,0.58532 -1.905,0.96695 -0.873125,0.38162 -1.619785,0.71648 -1.659245,0.74413 -0.03946,0.0276 0.319665,0.5801 0.798056,1.22768 l 0.869802,1.17741 0.625385,0.3234 c 0.343962,0.17786 1.196178,0.38305 1.893815,0.45597 l 1.26843,0.13258 0.959379,-0.26861 c 1.106157,-0.30971 1.229332,-0.59352 0.335198,-0.77235 -0.3433,-0.0687 -0.788789,-0.30672 -0.989976,-0.52903 l -0.365795,-0.4042 0.429942,-0.57692 0.429943,-0.57693 1.036283,-0.37914 c 0.569956,-0.20853 1.336428,-0.51809 1.703272,-0.68792 l 0.666989,-0.30877 h 1.158483 1.158482 l 0.899889,-0.3175 0.89989,-0.3175 1.61381,0.0179 c 0.88759,0.01 2.1853,0.0917 2.8838,0.18188 1.60432,0.20719 1.54697,0.48168 0.55765,-2.66897 -1.37207,-4.36957 -1.72181,-5.59338 -1.72181,-6.02497 v -0.40628 l -0.48697,-0.18514 c -0.26783,-0.10183 -0.74408,-0.13599 -1.05833,-0.0759 l -0.57137,0.10922 v -0.20466 -0.20465 l -1.32292,-0.039 -1.32291,-0.039 -0.0706,-0.20438 -0.0705,-0.20438 h -1.136574 c -0.625113,0 -1.382889,-0.11224 -1.683948,-0.24941 l -0.547379,-0.2494 0.06376,-0.33107 c 0.09027,-0.46871 0.989138,-0.84698 2.536315,-1.06736 1.630346,-0.23222 4.635026,-0.80191 4.712066,-0.89341 0.0546,-0.0648 -0.31289,-3.41911 -0.38206,-3.48758 -0.0189,-0.0187 -1.1639,0.0353 -2.5444,0.12017 l -2.509993,0.15422 -0.199274,0.35609 -0.199275,0.35608 -2.899899,0.0356 c -1.594944,0.0196 -2.518899,0.0672 -2.053232,0.1059 0.465666,0.0387 1.235604,0.12137 1.710972,0.18376 l 0.864306,0.11345 v 0.31464 0.31465 l -0.546806,0.15271 c -0.300743,0.084 -1.807062,0.15031 -3.347375,0.14736 l -2.800569,-0.005 -0.258014,-0.25801 c -0.141908,-0.14191 -0.429464,-0.25801 -0.639014,-0.25801 h -0.381 l 0.05292,0.23812 c 0.0291,0.13097 -0.05424,0.27781 -0.185208,0.32632 l -0.238125,0.0882 V 153.1 152.56201 l 0.767292,-0.0251 c 0.42201,-0.0138 0.886354,-0.01 1.031875,0.009 0.14552,0.0189 0.264583,-0.0651 0.264583,-0.18659 0,-0.12152 0.16108,-0.22094 0.357956,-0.22094 h 0.357956 l -0.410873,-0.31077 -0.410872,-0.31077 0.277075,-0.007 0.277075,-0.007 -0.130817,-0.21167 -0.130817,-0.21166 h 0.224158 c 0.123288,0 0.224159,0.13725 0.224159,0.305 0,0.39058 0.134645,0.46049 1.164167,0.60448 0.465666,0.0651 0.679979,0.0707 0.47625,0.0123 -0.572691,-0.1641 -0.437643,-0.49593 0.211666,-0.5201 l 0.582084,-0.0217 -0.698658,-0.16547 c -1.065051,-0.25223 -1.026186,-0.38968 0.07509,-0.26555 l 0.984843,0.11101 0.180965,-0.29281 0.180966,-0.29281 0.273397,0.29386 0.273398,0.29387 -0.3175,-0.16794 -0.3175,-0.16794 0.211666,0.20592 c 0.376226,0.366 1.880892,0.71913 2.800573,0.65727 l 0.895573,-0.0602 -0.04891,-0.29326 -0.04891,-0.29326 1.246259,-0.0711 c 0.685443,-0.0391 1.304568,-0.13197 1.375834,-0.20641 0.07126,-0.0744 -0.319419,-0.0919 -0.868188,-0.0387 l -0.997761,0.0967 0.112804,-0.18252 c 0.06204,-0.10039 0.182207,-0.13963 0.267034,-0.0872 0.08483,0.0524 0.292558,-0.001 0.461624,-0.11948 l 0.307394,-0.2148 -0.9525,0.12594 -0.9525,0.12593 0.288534,-0.18904 0.288534,-0.18905 -0.288534,-0.13381 -0.288534,-0.1338 0.529167,0.10529 c 0.291041,0.0579 0.796725,0.10659 1.123742,0.10818 l 0.594575,0.003 -0.130817,0.21167 -0.130818,0.21167 h 0.435826 0.435831 v 0.23125 0.23126 l 1.21708,-0.12076 c 1.81217,-0.1798 1.93594,-0.20606 1.82405,-0.38711 -0.0565,-0.0915 0.008,-0.16631 0.14402,-0.16631 h 0.24681 l -0.12184,-0.3175 -0.12184,-0.3175 h 0.22797 0.22797 l -0.13281,0.52917 -0.13281,0.52916 h 0.19632 0.19633 l -0.018,-1.5792 -0.018,-1.57919 -0.29694,-0.11395 c -0.16332,-0.0627 -0.54171,-0.0525 -0.84086,0.0226 l -0.54392,0.13651 0.1499,-0.24253 0.14989,-0.24254 h 0.62251 0.62251 v -1.18681 -1.18682 l -0.37042,0.15842 c -0.20373,0.0871 -0.61059,0.20018 -0.90413,0.25124 l -0.53372,0.0928 -1.17737,-1.23434 c -0.64755,-0.67889 -1.224911,-1.37699 -1.283024,-1.55133 l -0.105661,-0.31698 -1.129402,0.52898 -1.129402,0.52899 -2.02802,-0.012 -2.028021,-0.012 -1.117715,-0.44636 c -0.614743,-0.24549 -1.829181,-0.88978 -2.69875,-1.43176 L 87.5164,140.25462 v -0.41353 -0.41354 l 0.508606,-0.19337 c 0.279733,-0.10636 0.573683,-0.29867 0.653222,-0.42737 l 0.144617,-0.23399 -0.272597,-0.36115 -0.272598,-0.36114 0.286071,0.25394 0.286072,0.25395 0.846834,-0.72486 c 0.465759,-0.39867 1.251881,-0.87955 1.746938,-1.06861 l 0.900104,-0.34375 -0.849307,-0.87515 -0.849307,-0.87516 -1.17338,-2.43768 c -0.645359,-1.34073 -1.349307,-2.69051 -1.564328,-2.99952 -0.517462,-0.74366 -0.493092,-0.99196 0.11227,-1.1439 l 0.503217,-0.1263 2.0897,0.52701 c 1.149335,0.28985 2.2802,0.58787 2.513033,0.66228 l 0.423333,0.13528 0.0076,-1.1221 c 0.0042,-0.61715 0.04544,-1.64597 0.09176,-2.28627 0.04631,-0.64029 0.01152,-1.4738 -0.07733,-1.85225 l -0.161531,-0.6881 0.312392,-0.11987 0.312392,-0.11988 1.512533,0.72044 1.512534,0.72043 0.135748,-0.21964 c 0.07466,-0.12081 0.155588,-0.93867 0.179835,-1.81747 l 0.04409,-1.59782 0.329337,-0.0663 c 0.181135,-0.0365 0.527496,0.0397 0.769691,0.16937 l 0.440354,0.23567 -0.144466,0.23375 -0.144466,0.23375 0.254462,-0.15727 0.254461,-0.15726 1.254284,0.74717 1.25429,0.74718 0.42023,-0.53424 c 0.23113,-0.29383 0.4782,-0.71688 0.54905,-0.94011 0.18609,-0.58631 0.65357,-0.49927 1.18595,0.22081 0.39344,0.53216 1.03235,0.73586 0.71929,0.22934 -0.14789,-0.23931 0.45732,-0.71018 0.71116,-0.5533 l 0.20631,0.12751 0.15316,-0.24782 0.15317,-0.24783 -0.29729,0.17917 -0.29729,0.17917 0.25236,-0.31218 0.25236,-0.31217 0.67188,-0.0512 0.67188,-0.0512 -0.12806,0.33373 -0.12807,0.33373 0.24521,-0.15155 0.24521,-0.15154 -0.13937,0.36321 -0.13938,0.36322 0.18881,-0.1167 0.18882,-0.11669 0.62072,0.77374 0.62072,0.77375 1.93604,-1.09138 c 1.06481,-0.60026 2.09116,-1.09138 2.28076,-1.09138 h 0.34472 l -0.14177,0.75574 -0.14178,0.75573 0.58861,1.96824 0.58861,1.96824 0.95836,-0.41875 c 1.43403,-0.6266 3.83766,-1.43086 4.27627,-1.43086 h 0.38626 v 0.32593 c 0,0.17926 -0.18529,0.68913 -0.41175,1.13303 -0.22646,0.4439 -0.65689,1.77414 -0.95649,2.95609 -0.60073,2.36984 -1.04669,3.49014 -1.67606,4.21036 l -0.41616,0.47625 h 0.80009 c 0.44005,0 1.3789,0.14999 2.08633,0.3333 0.70744,0.18332 1.67368,0.3134 2.14722,0.28908 0.47354,-0.0243 0.98005,-0.0314 1.12557,-0.0158 l 0.26458,0.0284 v 0.62402 0.62401 l -1.09109,1.3339 c -0.6001,0.73365 -1.53632,1.76867 -2.08048,2.30005 l -0.98939,0.96615 -1.25327,0.50379 c -0.6893,0.27708 -1.36977,0.66438 -1.51216,0.86067 -0.34068,0.46964 -1.66566,0.98831 -2.96505,1.16068 l -1.04315,0.13838 -1.18734,-0.24649 -1.18735,-0.24649 -0.50958,-0.40084 -0.50958,-0.40084 -0.45367,0.88942 -0.45366,0.88943 -0.84878,0.62269 -0.84878,0.62268 v 0.9119 0.9119 h 0.62251 c 0.34237,0 0.68444,0.10021 0.76014,0.2227 l 0.13764,0.22271 -0.60139,-0.064 -0.6014,-0.0639 -0.0387,2.18676 -0.0387,2.18677 0.35618,-0.15765 c 0.1959,-0.0867 0.55836,-0.16588 0.80548,-0.17594 l 0.4493,-0.0183 -0.10257,-0.26728 c -0.0564,-0.147 0.004,-0.39589 0.13464,-0.55308 l 0.2372,-0.28581 -0.58394,0.0814 -0.58393,0.0814 0.51535,-0.22383 c 0.28344,-0.12311 0.63323,-0.1786 0.77732,-0.12331 l 0.26197,0.10053 -0.11347,0.4339 -0.11347,0.4339 -0.24052,-0.13739 -0.24052,-0.13739 0.17629,0.19269 c 0.097,0.10598 0.54298,0.19855 0.99116,0.20573 l 0.81487,0.013 0.14298,-0.43637 c 0.0786,-0.24001 0.13133,-0.5119 0.11707,-0.6042 -0.0143,-0.0923 0.18886,-0.0529 0.45136,0.0876 0.56125,0.30037 1.15393,0.39746 2.59794,0.42559 l 1.05833,0.0206 -0.55344,0.16145 c -0.3044,0.0888 -0.82828,0.11914 -1.16417,0.0674 -0.3359,-0.0517 -0.87266,-0.0862 -1.1928,-0.0765 l -0.58209,0.0175 v -0.22337 -0.22338 l -0.29615,0.27293 c -0.45802,0.4221 -0.25832,0.47161 2.05482,0.50941 1.18644,0.0194 2.32386,0.10336 2.52758,0.18661 l 0.37042,0.15137 v -0.44598 -0.44598 h 1.25751 c 0.69163,0 1.30572,0.078 1.36465,0.17337 l 0.10715,0.17336 -0.58854,-0.0864 -0.58855,-0.0864 v 0.32724 c 0,0.17998 0.13304,0.37829 0.29564,0.44069 l 0.29564,0.11344 -0.13174,0.21316 -0.13174,0.21317 h 0.9525 0.9525 l 0.13081,0.21166 c 0.072,0.11642 0.33951,0.20563 0.59458,0.19825 l 0.46376,-0.0134 -0.49622,-0.19882 -0.49621,-0.19881 -0.11524,-0.44067 -0.11523,-0.44066 -0.15864,0.25668 -0.15863,0.25668 -0.23879,-0.14758 c -0.34317,-0.21209 -0.0742,-0.53739 0.46853,-0.5667 l 0.46376,-0.025 -0.635,-0.16158 -0.635,-0.16158 0.54681,-0.025 c 0.30074,-0.0138 0.61277,-0.091 0.6934,-0.17164 0.17462,-0.17462 1.93415,-0.15586 2.22471,0.0237 l 0.20309,0.12552 0.1072,-0.26591 0.1072,-0.2659 0.0167,0.2905 0.0167,0.2905 0.37042,-0.28685 0.37042,-0.28685 -0.39871,0.46761 c -0.21929,0.25718 -0.4854,0.41403 -0.59135,0.34855 -0.27284,-0.16863 -0.80911,0.3251 -0.80911,0.74492 v 0.35237 l 0.42333,0.0319 c 0.5104,0.0384 0.52279,-0.0238 0.0907,-0.45585 l -0.33262,-0.33262 h 0.39135 c 0.21525,0 0.60305,-0.14828 0.86179,-0.3295 l 0.47043,-0.32951 v 0.32951 c 0,0.18122 -0.0889,0.3295 -0.19761,0.3295 -0.10868,0 -0.22774,0.26194 -0.26458,0.58208 -0.0368,0.32015 -0.12377,0.53446 -0.19319,0.47625 -0.0694,-0.0582 -0.27807,0.0202 -0.46367,0.17423 l -0.33745,0.28006 0.11922,0.31068 0.11922,0.31068 -0.18472,-0.049 c -0.1016,-0.0269 -0.49511,0.0245 -0.87448,0.1144 l -0.68977,0.16338 0.14039,0.22715 0.14038,0.22714 -0.24782,-0.15316 c -0.1363,-0.0842 -0.19302,-0.24183 -0.12605,-0.3502 l 0.12178,-0.19704 h -0.3175 c -0.17462,0 -0.37295,0.0897 -0.44073,0.19938 l -0.12322,0.19939 -0.66012,-0.27756 -0.66011,-0.27755 -0.41121,0.10753 -0.41121,0.10754 0.28247,0.17906 0.28248,0.17906 -0.27707,0.003 -0.27708,0.003 0.11807,0.19105 0.11808,0.19104 -0.63475,0.22128 c -0.34911,0.1217 -0.63475,0.27086 -0.63475,0.33148 0,0.0606 0.13895,0.0569 0.30877,-0.008 0.16983,-0.0652 0.66531,-8.2e-4 1.10108,0.143 l 0.7923,0.26148 0.0837,-0.25102 0.0837,-0.25102 0.29692,0.24642 0.29691,0.24641 0.33364,-0.27689 0.33363,-0.27689 0.14415,0.23325 0.14416,0.23325 1.16263,0.0539 1.16263,0.0539 0.10583,-0.17734 0.10583,-0.17733 -0.47614,-0.0351 c -0.26188,-0.0193 -0.54763,-0.11006 -0.635,-0.2017 l -0.15886,-0.16661 0.79041,0.0883 0.79041,0.0883 0.0925,-0.22169 c 0.0508,-0.12193 0.1,0.27837 0.10917,0.88956 l 0.0167,1.11125 -0.37042,0.0149 -0.37041,0.0149 0.42333,0.18192 0.42333,0.18191 -0.3175,0.0181 -0.3175,0.0181 0.3175,0.21763 0.3175,0.21763 -0.52916,-0.0621 -0.52917,-0.0621 0.0622,-0.37041 0.0622,-0.37042 -3.02553,-0.0339 c -1.66404,-0.0186 -2.69215,-0.0699 -2.28469,-0.11399 0.40746,-0.0441 0.88104,-0.12919 1.0524,-0.18917 l 0.31157,-0.10907 -0.31157,-0.19704 c -0.17136,-0.10837 -0.59732,-0.18722 -0.94657,-0.17523 l -0.635,0.0218 0.635,0.16158 0.635,0.16158 -0.65937,0.025 -0.65937,0.025 -0.56699,-0.446 -0.56699,-0.446 -0.62573,0.0918 c -0.34414,0.0505 -0.62572,0.0237 -0.62572,-0.0596 0,-0.0833 -0.33337,-0.214 -0.74083,-0.29044 -0.40746,-0.0764 -0.74083,-0.22692 -0.74083,-0.33441 V 153.21 l 0.37041,0.11916 0.37042,0.11915 -0.30739,-0.21766 c -0.16907,-0.11972 -0.37124,-0.17821 -0.44928,-0.12999 -0.21664,0.1339 -4.04196,0.25864 -4.47318,0.14587 -0.46003,-0.1203 -0.50088,-0.65145 -0.063,-0.81947 0.45534,-0.17473 0.17251,-0.50035 -0.43461,-0.50035 h -0.51668 v -0.40781 -0.40781 l 0.37042,-0.0968 0.37042,-0.0968 -0.3175,-0.0213 c -0.17463,-0.0117 -0.44905,0.062 -0.60983,0.16384 l -0.29233,0.18515 0.18649,1.66369 0.1865,1.6637 1.69333,0.14613 c 3.61785,0.31223 6.02723,0.74483 7.44293,1.33634 l 0.73684,0.30788 -0.0682,0.46777 -0.0682,0.46778 -1.05834,0.27338 c -0.58208,0.15036 -1.44985,0.27522 -1.92837,0.27747 -0.47852,0.002 -1.33577,0.0734 -1.905,0.15818 l -1.03496,0.1541 0.84667,0.13336 0.84666,0.13337 -0.9525,0.0192 c -0.52387,0.0105 -1.58294,-0.051 -2.35349,-0.13682 l -1.401,-0.156 0.36989,1.27812 c 0.20344,0.70296 0.53144,1.82702 0.72889,2.49791 l 0.359,1.21981 0.21211,-0.13109 c 0.11666,-0.0721 0.62448,-0.16962 1.1285,-0.2167 l 0.91639,-0.0856 0.54902,0.20874 0.54903,0.20874 v -0.41322 -0.41321 l 0.47625,-0.30707 c 0.26194,-0.16889 1.09537,-0.42405 1.85208,-0.56702 l 1.37583,-0.25995 2.43417,-0.0187 c 1.33879,-0.0103 2.88661,0.058 3.43958,0.15177 l 1.00542,0.17043 v 0.70205 0.70204 l -0.47625,0.35312 c -0.26194,0.19422 -0.33337,0.28472 -0.15875,0.2011 l 0.3175,-0.15202 -0.40322,0.45972 c -0.22177,0.25285 -0.49537,0.45972 -0.608,0.45972 h -0.20478 l 0.28029,-0.37042 0.28029,-0.37041 -0.29456,0.26244 c -0.16201,0.14434 -0.31574,0.40673 -0.34163,0.58309 l -0.0471,0.32065 0.19998,-0.1236 c 0.10999,-0.068 0.48263,-0.20465 0.82809,-0.30373 l 0.6281,-0.18014 v 0.1884 c 0,0.10362 -0.38161,0.30273 -0.84803,0.44247 -1.04474,0.31301 -0.96622,0.50964 0.0874,0.21874 l 0.76068,-0.21003 v 0.28062 0.28062 l -0.37343,-0.0977 c -0.20539,-0.0537 -0.58841,-0.0181 -0.85115,0.0791 l -0.47772,0.17672 0.26907,0.34271 c 0.14798,0.18849 0.50719,0.4062 0.79823,0.48379 l 0.52917,0.14107 -0.3175,-0.24165 -0.3175,-0.24165 0.3175,0.0866 c 0.17462,0.0476 0.34793,0.24347 0.38513,0.43524 l 0.0676,0.34868 -0.87083,-0.30725 -0.87084,-0.30725 -1.94846,0.0205 -1.94846,0.0205 1.16417,0.29385 c 0.64029,0.16162 1.60568,0.53069 2.14531,0.82015 l 0.98115,0.5263 h 0.65927 0.65927 v 0.30501 c 0,0.51833 -0.61006,0.52956 -3.35906,0.0618 l -0.2899,-0.0493 -0.41648,1.08524 -0.41648,1.08523 0.75073,0.98351 0.75074,0.98352 -0.13013,0.36542 c -0.23394,0.65692 -0.53021,0.89458 -1.11517,0.89458 h -0.57557 l -0.23879,0.79701 -0.23879,0.797 -0.83421,0.7905 -0.83421,0.79049 -0.38926,-0.0167 -0.38925,-0.0167 0.26458,-0.10676 c 0.14552,-0.0587 0.26458,-0.24374 0.26458,-0.41116 0,-0.16742 0.21432,-0.40412 0.47625,-0.526 0.26194,-0.12188 0.64909,-0.45547 0.86034,-0.74132 l 0.38408,-0.51971 0.091,-1.42373 c 0.0501,-0.78305 0.11102,-1.73329 0.13543,-2.11165 0.0244,-0.37835 0.12017,-0.68791 0.21279,-0.68791 0.0926,0 0.15303,-0.0714 0.13423,-0.15875 -0.0188,-0.0873 0.0764,-0.42069 0.21166,-0.74084 0.13522,-0.32014 0.34264,-0.83045 0.46093,-1.13401 l 0.21508,-0.55192 0.73742,0.0861 c 0.40558,0.0473 0.73742,0.0527 0.73742,0.012 0,-0.17749 -1.52013,-0.68875 -1.7061,-0.57381 l -0.2058,0.12719 0.14322,0.24996 0.14322,0.24996 -0.19269,-0.17639 c -0.10597,-0.097 -0.20459,-0.2637 -0.21914,-0.37042 -0.0549,-0.40249 -0.0866,-0.41559 -0.36866,-0.15215 l -0.28928,0.27023 0.3314,0.24232 0.3314,0.24232 -0.2912,0.88234 c -0.16016,0.48529 -0.40693,1.04061 -0.54838,1.23405 l -0.25718,0.35172 -0.38104,-0.30951 -0.38103,-0.30951 0.15896,0.26458 0.15895,0.26459 h -0.34248 -0.34249 l 0.15471,-0.26459 c 0.0851,-0.14552 -0.0499,-0.0852 -0.30001,0.13413 -0.2501,0.21928 -0.41065,0.47003 -0.35677,0.5572 0.12324,0.19941 -0.74992,1.33017 -0.90635,1.17374 -0.0633,-0.0633 -0.24297,-0.009 -0.3992,0.1206 -0.15623,0.12967 -0.29135,0.20028 -0.30025,0.15692 -0.009,-0.0434 -0.0492,-0.2529 -0.0895,-0.46564 l -0.0733,-0.38679 0.27539,0.10567 c 0.15146,0.0581 0.39621,-0.006 0.54389,-0.14237 l 0.26851,-0.24804 -0.16959,0.29729 -0.16959,0.29729 0.24437,-0.15103 c 0.39559,-0.24449 0.28193,-0.49285 -0.27419,-0.59916 l -0.51856,-0.0991 -0.15107,0.33904 c -0.0831,0.18647 -0.1593,0.43428 -0.16936,0.5507 -0.0101,0.11642 -0.1294,0.21167 -0.26522,0.21167 -0.13582,0 -0.32632,0.0867 -0.42334,0.19268 l -0.17639,0.19269 0.29729,-0.17248 0.29729,-0.17247 -0.14532,0.23513 -0.14531,0.23512 -0.32295,-0.12392 -0.32294,-0.12393 0.62278,-0.60888 c 0.34253,-0.33488 0.6666,-0.83814 0.72017,-1.11834 l 0.0974,-0.50946 -0.40929,0.0788 -0.40929,0.0788 0.21852,-0.2633 0.21852,-0.2633 -0.67593,0.0336 c -0.37176,0.0185 -0.86643,0.10325 -1.09926,0.18832 l -0.42333,0.15467 0.5967,-0.41714 0.59671,-0.41715 -0.43825,-0.11461 -0.43825,-0.1146 0.11712,0.1895 0.11712,0.1895 -0.32728,-0.12558 c -0.18,-0.0691 -0.28007,-0.20198 -0.22236,-0.29534 l 0.1049,-0.16975 -0.42362,0.11078 c -0.49894,0.13048 -0.49728,-0.001 -0.0235,1.86058 l 0.37708,1.48166 0.44962,-0.0159 c 0.24729,-0.009 0.49023,0.0899 0.53986,0.21928 l 0.0902,0.23517 -0.69507,-0.0811 -0.69507,-0.0812 -0.26625,-0.98479 c -0.14643,-0.54164 -0.35492,-1.09969 -0.46329,-1.24011 -0.10837,-0.14042 -0.1356,-0.35474 -0.0605,-0.47625 l 0.13655,-0.22094 h -0.20434 -0.20434 l 0.1107,-0.42333 0.1107,-0.42334 h -0.23635 c -0.12999,0 -0.23635,-0.14849 -0.23635,-0.32999 v -0.32999 l -0.23279,0.14387 -0.23278,0.14387 0.23336,-0.43603 0.23335,-0.43604 -0.20299,-0.12545 -0.203,-0.12546 0.11924,-0.31072 0.11923,-0.31072 h -0.2468 c -0.13574,0 -0.19407,-0.0853 -0.1296,-0.18964 0.14236,-0.23035 -0.33855,-1.2091 -0.58753,-1.19574 -0.16328,0.009 -0.48132,-0.86416 -1.51962,-4.17087 -0.21019,-0.6694 -0.44827,-1.21709 -0.52907,-1.21709 -0.0808,0 -0.14635,-0.26193 -0.14566,-0.58208 6.9e-4,-0.32015 -0.19732,-1.43933 -0.44002,-2.48708 -0.54146,-2.33753 -0.89199,-5.41678 -0.89199,-7.83582 v -1.82 l 0.24321,0.15031 0.24322,0.15032 -0.11716,-1.45953 -0.11716,-1.45953 0.20747,-0.38765 0.20746,-0.38765 -0.45044,0.24107 c -0.24775,0.13259 -0.60982,0.21039 -0.8046,0.17287 l -0.35415,-0.0682 0.70638,-0.44725 0.70638,-0.44724 -0.21313,-0.13172 -0.21312,-0.13172 -0.12784,0.33314 -0.12784,0.33314 -0.66165,-0.14532 -0.66166,-0.14533 0.16502,0.26701 0.16502,0.267 -0.23165,-0.14316 -0.23164,-0.14317 -0.68943,0.41927 -0.68943,0.41927 -0.32871,-0.24353 c -0.1808,-0.13394 -0.11909,-0.0183 0.13712,0.25698 l 0.46584,0.50052 0.88676,-0.26568 0.88675,-0.26568 0.15181,0.24562 c 0.0835,0.1351 0.20519,2.11936 0.27043,4.40947 l 0.11864,4.16385 0.34356,2.32834 c 0.18897,1.28058 0.42996,2.51883 0.53554,2.75166 0.10558,0.23284 0.44416,1.37584 0.75239,2.54 0.30823,1.16417 0.79511,2.83104 1.08196,3.70417 0.28685,0.87312 0.84924,2.84805 1.24976,4.38873 l 0.72822,2.80123 v 0.91352 0.91352 l 0.2341,0.23409 c 0.12875,0.12875 0.26301,0.69363 0.29837,1.25529 l 0.0643,1.02119 0.70107,0.48038 0.70107,0.48038 h -0.42794 c -0.23537,0 -0.55622,-0.11906 -0.713,-0.26458 l -0.28505,-0.26458 0.14938,0.26458 0.14937,0.26458 h -0.19824 c -0.10903,0 -0.32896,-0.16116 -0.48874,-0.35813 z m -1.19008,-2.79599 c 0.0873,-0.0115 0.37306,-0.0223 0.635,-0.0241 l 0.47625,-0.003 -0.21167,-0.15551 c -0.11642,-0.0855 -0.2196,-0.32219 -0.2293,-0.52592 -0.0678,-1.42423 -0.11426,-1.7771 -0.26516,-2.01484 l -0.17047,-0.26858 -0.91764,0.32376 c -0.5047,0.17807 -0.95345,0.28794 -0.99723,0.24416 -0.0726,-0.0726 0.57267,-0.35407 1.44049,-0.6285 l 0.34235,-0.10826 -0.0508,-0.49366 c -0.0279,-0.27152 -0.0629,-0.65279 -0.0778,-0.84727 l -0.027,-0.35359 -0.63685,-0.13988 c -0.35026,-0.0769 -0.59726,-0.20356 -0.54888,-0.2814 0.0484,-0.0778 -0.45086,-0.11904 -1.10941,-0.0916 l -1.19736,0.05 0.42333,-0.1984 0.42334,-0.19839 -1.42238,0.0202 -1.42238,0.0202 0.12501,0.20226 0.125,0.20226 -0.43496,-0.23278 c -0.52679,-0.28193 -0.73969,-0.2979 -0.58258,-0.0437 l 0.11686,0.18909 -0.51088,0.12822 c -0.28099,0.0705 -0.67696,0.0645 -0.87993,-0.0134 l -0.36904,-0.14161 0.12597,0.20382 0.12597,0.20382 -1.414166,-0.0427 -1.414164,-0.0427 1.058334,0.15911 1.058333,0.15912 -1.098758,0.0332 -1.098758,0.0333 -0.141417,0.22881 -0.141417,0.22882 -0.506075,-0.12702 -0.506075,-0.12701 v 0.24038 0.24039 l -0.423626,-0.11078 -0.423625,-0.11078 0.140848,0.2279 0.140849,0.22789 -0.312363,-0.11986 -0.312362,-0.11987 -0.51611,0.39669 -0.516111,0.39669 0.277075,0.005 0.277075,0.005 -0.117783,0.19058 -0.117784,0.19058 0.861456,0.44901 c 0.473801,0.24696 0.816113,0.37552 0.760693,0.28568 l -0.100764,-0.16335 2.397749,-0.003 2.397746,-0.003 -0.24856,0.1581 c -0.13671,0.087 -0.53432,0.17144 -0.88357,0.18775 l -0.635,0.0297 1.112668,0.16231 c 0.611962,0.0893 1.659712,0.12894 2.328332,0.0881 0.66862,-0.0408 1.38235,-0.0781 1.58608,-0.0829 l 0.37042,-0.009 v -0.30209 -0.30208 l -0.68792,0.0718 c -0.37835,0.0395 -0.556,0.0203 -0.39476,-0.0426 l 0.29315,-0.11439 -0.82232,-0.38899 c -0.45227,-0.21395 -0.67944,-0.39368 -0.50482,-0.39942 l 0.3175,-0.0104 -0.3175,-0.22839 -0.3175,-0.22839 0.38773,0.1258 c 0.21325,0.0692 0.499,0.12726 0.635,0.12904 l 0.24727,0.003 -0.26115,0.16588 -0.26115,0.16588 0.7374,0.33423 0.7374,0.33424 v -0.18586 c 0,-0.10222 -0.1905,-0.37635 -0.42333,-0.60919 -0.23283,-0.23283 -0.32896,-0.42333 -0.21361,-0.42333 0.11534,0 0.42491,0.3322 0.68791,0.73821 l 0.4782,0.73822 0.3175,-6.2e-4 0.3175,-6.3e-4 -0.28718,-0.18196 -0.28718,-0.18197 0.19145,-0.11833 c 0.1053,-0.0651 0.31985,-0.039 0.47678,0.058 l 0.28532,0.17634 -0.13079,0.34082 c -0.0719,0.18745 -0.20487,0.32866 -0.29543,0.3138 -0.0905,-0.0149 -0.33132,-0.0157 -0.53505,-0.002 l -0.37042,0.0251 v 0.3175 0.3175 h 0.30698 c 0.16884,0 0.38316,0.12625 0.47625,0.28055 0.0931,0.1543 0.34091,0.3437 0.55068,0.4209 l 0.38141,0.14037 -0.14664,-0.26216 c -0.0807,-0.14419 0.0235,-0.10203 0.23146,0.0937 l 0.3781,0.35584 0.33963,-0.36582 c 0.1868,-0.2012 0.25653,-0.24227 0.15496,-0.0913 l -0.18466,0.27456 h 0.23758 c 0.13067,0 0.23758,0.14622 0.23758,0.32494 v 0.32495 l 0.37042,-0.19824 c 0.20373,-0.10903 0.44185,-0.20763 0.52917,-0.21911 z m 7.88458,-7.42921 1.69333,-0.41834 1.53459,-0.002 1.53458,-0.002 v -0.30501 c 0,-0.16776 -0.10125,-0.36759 -0.225,-0.44407 l -0.22501,-0.13906 -0.40999,0.37104 -0.41,0.37104 v -0.20757 c 0,-0.11417 0.22787,-0.42165 0.50637,-0.68329 l 0.50637,-0.47571 0.0939,0.17423 c 0.0517,0.0958 0.0657,0.0571 0.0311,-0.0859 l -0.0628,-0.26017 0.69956,-0.53358 c 0.38475,-0.29347 0.80963,-0.53358 0.94416,-0.53358 h 0.2446 v -0.42333 -0.42334 h -0.42333 c -0.23283,0 -0.42333,-0.0793 -0.42333,-0.17616 v -0.17617 l -1.19441,0.0991 -1.19441,0.0991 0.14857,-0.24038 0.14856,-0.24039 -1.3354,0.03 -1.33541,0.03 0.84666,0.16768 0.84667,0.16768 -1.53458,-0.0636 -1.53459,-0.0636 v 0.20657 0.20656 l -0.72598,-0.0848 -0.72599,-0.0848 0.12245,0.19812 0.12244,0.19812 -0.55422,-0.10595 -0.55422,-0.10594 0.1025,0.16585 c 0.0564,0.0912 -0.0908,0.22719 -0.32698,0.30216 l -0.42948,0.13631 0.1328,0.21487 0.1328,0.21487 0.21357,-0.21357 0.21357,-0.21357 0.30945,0.11875 0.30946,0.11875 -0.28234,0.18864 -0.28233,0.18864 0.61366,-0.14313 0.61365,-0.14313 -0.17011,0.27524 -0.1701,0.27524 0.25714,-0.15893 0.25715,-0.15892 0.61953,0.25662 0.61954,0.25662 -0.13585,0.2198 -0.13585,0.21981 0.25368,-0.15678 0.25368,-0.15679 0.5266,0.34505 0.52661,0.34504 -0.126,0.20386 -0.12599,0.20387 0.3297,0.12651 0.3297,0.12652 -0.13693,0.22155 -0.13692,0.22156 -0.24651,-0.33711 -0.2465,-0.33712 -2.55858,0.0405 -2.55857,0.0405 0.0982,-0.15875 c 0.19722,-0.31878 -0.25949,-0.13107 -0.84335,0.34662 l -0.59909,0.49014 1.07534,0.21262 c 1.24224,0.24563 1.36198,0.16602 0.38741,-0.25756 l -0.68791,-0.299 0.56959,-0.008 c 0.31327,-0.005 0.62846,0.087 0.70041,0.20339 0.072,0.11641 0.23211,0.21166 0.35591,0.21166 h 0.22509 l -0.18467,-0.27456 c -0.10157,-0.151 -0.0406,-0.12078 0.13545,0.0672 0.85518,0.9129 0.99195,0.93159 3.06655,0.41906 z m -13.24583,-22.9305 c 0.34806,-0.29389 4.1563,-1.69339 4.60797,-1.69339 h 0.25841 l -0.13984,-0.22626 c -0.0769,-0.12444 -0.12509,-0.561 -0.10707,-0.97014 l 0.0328,-0.74388 -0.18002,0.52917 -0.18002,0.52917 -0.0211,-0.67543 c -0.0116,-0.37148 0.0744,-0.73445 0.19114,-0.8066 l 0.21224,-0.13117 -0.21969,-0.41048 c -0.12083,-0.22577 -0.36157,-0.41049 -0.53498,-0.41049 h -0.31529 l -0.20603,-0.54191 -0.20603,-0.5419 -0.26498,0.13565 c -0.14574,0.0746 0.002,-0.11017 0.3289,-0.4106 0.63479,-0.58386 0.52471,-0.73845 -0.15809,-0.22201 -0.54095,0.40916 -1.27432,0.3945 -1.70285,-0.034 l -0.34479,-0.3448 0.15326,-0.34312 c 0.0843,-0.18872 0.14098,-0.60828 0.12597,-0.93237 l -0.0273,-0.58924 0.30954,0.30954 0.30954,0.30954 -0.003,0.5972 -0.003,0.5972 -0.18197,-0.28718 -0.18196,-0.28718 -0.16463,0.26638 -0.16463,0.26637 0.35009,0.25599 0.35008,0.25599 0.51391,-0.0982 0.51391,-0.0982 -0.0561,-0.24277 c -0.0309,-0.13353 -0.0141,-0.1652 0.0372,-0.0704 l 0.0933,0.17241 0.34823,-0.33578 c 0.76046,-0.73329 1.62936,-1.27904 2.03638,-1.27904 h 0.42851 l 0.33393,-1.05555 0.33393,-1.05555 0.14496,0.72482 0.14497,0.72482 0.25435,-0.25435 0.25435,-0.25435 -0.0495,-1.18288 c -0.0272,-0.65058 -0.15702,-1.38742 -0.28844,-1.63742 -0.36703,-0.69819 -1.28138,-1.73085 -1.48013,-1.67163 -0.0977,0.0291 -0.17759,-0.0899 -0.17759,-0.26458 v -0.3175 h -0.32279 -0.32279 l -0.12847,0.64235 c -0.19869,0.99342 -0.33418,0.57578 -0.1695,-0.52243 l 0.14654,-0.97721 0.34559,0.2699 0.34559,0.26989 -0.28857,-0.36808 c -0.32219,-0.41098 -0.66393,-0.31069 -0.66393,0.19482 v 0.33093 l -0.32425,-0.2691 -0.32424,-0.2691 0.21841,0.57446 c 0.28086,0.73871 0.27503,0.81757 -0.0462,0.6246 l -0.26459,-0.15896 0.25248,0.31232 0.25247,0.31231 -0.19631,0.3104 -0.19632,0.3104 -0.006,-0.42333 -0.006,-0.42334 -0.20518,0.3175 c -0.25865,0.40024 -0.26193,0.2783 -0.0156,-0.58062 l 0.19607,-0.68367 -0.20132,-0.12442 -0.20131,-0.12442 0.0582,0.28032 0.0582,0.28031 -0.36814,-0.029 c -0.20248,-0.016 -0.3277,0.0364 -0.27828,0.11638 0.0494,0.08 -0.10444,0.26675 -0.34192,0.41506 l -0.4318,0.26966 0.1631,-0.26389 0.16309,-0.26388 -0.51136,0.35638 -0.51136,0.35639 -0.23874,1.32062 -0.23874,1.32063 -0.0537,-0.74084 -0.0537,-0.74083 -0.15899,0.635 -0.15899,0.635 0.0678,-0.84513 0.0678,-0.84513 -0.40538,0.52763 c -0.22296,0.2902 -0.40749,0.60469 -0.41008,0.69887 -0.003,0.0942 -0.1,0.11238 -0.21638,0.0404 l -0.21166,-0.13082 0.0149,1.33541 0.0149,1.33541 0.15923,-0.40631 0.15924,-0.40631 0.28076,1.00278 0.28075,1.00277 0.17689,-0.27897 c 0.0973,-0.15343 0.19597,-0.85046 0.21929,-1.54896 l 0.0424,-1.27 0.0777,1.11125 c 0.0427,0.61119 0.15213,1.11125 0.24306,1.11125 0.0909,0 0.16533,0.29835 0.16533,0.663 v 0.66301 l -0.25719,-0.35173 -0.25719,-0.35172 -0.13451,0.35055 -0.13452,0.35054 0.24548,0.29579 c 0.13501,0.16268 0.19437,0.3469 0.13191,0.40936 -0.17209,0.17209 -1.85176,-1.49626 -1.85176,-1.83928 0,-0.16465 -0.1905,-0.41833 -0.42333,-0.56373 -0.47041,-0.29378 -0.56983,-0.0736 -0.15875,0.35151 l 0.26458,0.27363 -0.84666,-0.37113 -0.84667,-0.37113 -2.381073,-0.25681 -2.381072,-0.2568 -0.688094,0.17802 -0.688094,0.17802 0.79375,-0.0564 c 0.436562,-0.031 0.79375,0.0143 0.79375,0.10061 0,0.0863 0.404812,0.19729 0.899583,0.24654 0.494771,0.0492 0.07408,0.0785 -0.93487,0.0651 l -1.834454,-0.0245 0.352787,0.34335 c 0.194033,0.18884 0.448037,0.29263 0.564454,0.23065 l 0.211666,-0.11271 -0.149596,0.1659 -0.149596,0.16589 0.562462,0.73743 c 0.309355,0.40558 0.995798,1.07199 1.52543,1.4809 l 0.962967,0.74347 -0.47625,-0.14545 c -0.753506,-0.23014 -0.55375,0.084 0.273116,0.42944 l 0.749367,0.31311 -0.132102,0.21374 -0.132101,0.21375 0.578472,-0.14519 0.578473,-0.14519 -0.137452,0.2224 -0.137452,0.2224 0.899632,-0.11743 c 0.494797,-0.0646 0.931381,-0.1984 0.970186,-0.29737 0.0388,-0.099 0.324551,-0.16695 0.635001,-0.1511 l 0.56444,0.0288 -0.47625,0.0917 c -0.26193,0.0505 -0.47625,0.18035 -0.47625,0.28867 0,0.10832 -0.14287,0.19695 -0.317496,0.19695 h -0.3175 v 0.3175 0.3175 h -0.529167 c -0.291042,0 -0.529167,0.0747 -0.529167,0.16602 0,0.0913 -0.279194,0.33096 -0.620431,0.53253 l -0.620431,0.3665 -0.132894,-0.21503 -0.132894,-0.21502 h 0.329992 0.329992 V 139.98 139.67496 l 0.899583,-0.20146 0.899583,-0.20145 -0.906381,-0.0227 c -0.49851,-0.0125 -1.235885,-0.16034 -1.638611,-0.32861 l -0.73223,-0.30595 -0.880868,0.10618 c -0.484477,0.0584 -1.861288,0.43419 -3.059578,0.83511 -1.198291,0.40091 -2.338376,0.72894 -2.533522,0.72894 h -0.354812 l 0.228668,0.27552 c 0.125768,0.15154 0.662445,0.49217 1.192617,0.75695 l 0.963949,0.48142 -0.14107,0.22826 -0.141071,0.22825 0.212857,-0.13155 c 0.117071,-0.0724 0.800253,-0.0223 1.518183,0.1112 l 1.305325,0.24275 -0.268394,0.16845 -0.268395,0.16845 1.138505,-0.0794 1.138506,-0.0794 0.133615,-0.21619 c 0.07349,-0.1189 0.393939,-0.28153 0.712115,-0.36139 l 0.5785,-0.14519 -0.129914,-0.21021 -0.129914,-0.2102 0.448877,0.24023 0.448877,0.24023 v -0.20439 c 0,-0.11242 0.214312,-0.23483 0.47625,-0.27203 l 0.47625,-0.0676 -0.04682,-0.74083 -0.04681,-0.74083 0.128456,0.29784 0.128455,0.29784 0.281607,-0.61534 0.281607,-0.61534 -0.127961,0.82434 -0.127962,0.82435 0.244416,-0.15106 c 0.134428,-0.0831 0.203368,-0.21747 0.153198,-0.29865 -0.0502,-0.0812 0.13878,-0.25613 0.41988,-0.38879 0.60492,-0.28547 0.66887,-0.0661 0.12438,0.42667 l -0.38672,0.34998 0.0938,0.63897 0.0938,0.63896 0.34111,-0.0565 0.3411,-0.0566 0.005,0.24695 c 0.003,0.13582 0.0739,0.31608 0.15839,0.40058 l 0.15363,0.15363 0.28734,-0.23847 0.28734,-0.23847 v 0.30483 0.30483 l -0.22931,-0.13715 -0.2293,-0.13716 0.2905,0.35813 c 0.35023,0.43177 0.42751,0.43862 0.857,0.076 z m 10.89227,-1.52958 0.55439,-0.13915 v -0.29455 c 0,-0.16201 0.10088,-0.29455 0.22416,-0.29455 h 0.22416 l -0.14387,0.23278 -0.14387,0.23278 0.43709,-0.23392 c 0.2404,-0.12866 0.49564,-0.32866 0.5672,-0.44445 l 0.13012,-0.21053 h -0.89444 c -0.49194,0 -0.83228,-0.0622 -0.75631,-0.13813 0.076,-0.076 0.44697,-0.12935 0.82444,-0.11861 l 0.68631,0.0195 0.1601,-0.2518 c 0.26452,-0.41604 0.19571,-0.51056 -0.46842,-0.64338 -0.34925,-0.0698 -0.635,-0.21341 -0.635,-0.31902 v -0.19202 l 0.79375,0.28018 c 0.43656,0.1541 0.77464,0.36689 0.75128,0.47288 l -0.0425,0.19269 0.52184,-0.0998 c 0.28702,-0.0549 0.57605,-0.18746 0.64229,-0.29464 l 0.12044,-0.19488 -0.5469,0.13727 -0.54691,0.13726 v -0.24319 -0.24318 l 0.84757,0.05 0.84756,0.05 0.22544,-0.22544 c 0.12399,-0.12399 0.24634,-0.35695 0.27189,-0.51769 0.0672,-0.42269 0.37856,-0.86055 1.00073,-1.40725 l 0.54626,-0.48 v 0.31194 0.31194 l -0.20909,-0.12922 -0.2091,-0.12923 0.17124,0.27707 0.17125,0.27708 -0.2222,-0.13732 -0.22219,-0.13732 -0.13299,0.34658 c -0.21292,0.55486 -0.0652,0.49495 0.72363,-0.29338 0.40746,-0.40723 0.61536,-0.672 0.46201,-0.58839 l -0.27883,0.15202 -0.11628,-0.44463 c -0.0639,-0.24455 -0.20603,-0.44464 -0.31574,-0.44464 -0.10971,0 -0.14335,0.0908 -0.0748,0.20179 l 0.12471,0.20179 -0.80014,0.21199 c -0.44007,0.11659 -1.20687,0.30184 -1.704,0.41167 -0.49713,0.10983 -1.14753,0.35935 -1.44535,0.55448 l -0.54148,0.3548 0.11319,0.29496 0.11319,0.29497 -0.23513,0.14531 -0.23513,0.14532 0.15103,-0.24437 0.15103,-0.24437 h -0.19325 c -0.10629,0 -0.42506,0.21431 -0.70838,0.47625 -0.28333,0.26194 -0.7973,0.60983 -1.14216,0.7731 l -0.62703,0.29686 0.52917,0.15829 0.52917,0.1583 -0.55944,0.0211 -0.55944,0.0211 -0.11768,-0.30667 -0.11767,-0.30666 -0.61781,0.3082 -0.61781,0.30821 -1.62312,-0.25234 -1.62312,-0.25235 0.10682,-0.27836 0.10681,-0.27836 h -0.31085 c -0.79628,0 0.48895,1.62812 1.79553,2.27457 l 0.82752,0.40942 1.36531,0.0442 c 0.75093,0.0243 1.6148,-0.0184 1.91972,-0.0949 z m -2.50419,-1.98643 c 0.1106,-0.10991 0.71122,-0.47206 1.33472,-0.80477 1.05609,-0.56355 1.32703,-0.94644 0.73157,-1.03384 -0.1383,-0.0203 -0.56162,0.19193 -0.9407,0.47161 -1.31694,0.9716 -1.05695,0.50161 0.36915,-0.66735 0.78899,-0.64672 1.56485,-1.36192 1.72414,-1.58933 l 0.28961,-0.41348 -0.27787,-0.26275 -0.27787,-0.26275 -0.74083,-0.0145 c -0.40746,-0.008 -1.01698,-0.0933 -1.35449,-0.18962 l -0.61365,-0.17515 0.17031,0.27557 0.17031,0.27558 -0.77848,-0.12634 -0.77849,-0.12633 0.11365,0.18389 0.11365,0.18389 -0.42451,0.13474 c -0.23348,0.0741 -0.53533,0.0662 -0.67078,-0.0175 l -0.24626,-0.1522 0.16148,0.26129 0.16148,0.26129 -0.44982,0.31506 -0.44982,0.31507 0.14331,0.2501 0.14331,0.2501 -0.17551,-0.15921 -0.17551,-0.15921 -0.35231,0.31884 -0.35232,0.31884 v -0.30907 c 0,-0.16999 0.0655,-0.26857 0.14562,-0.21907 0.0801,0.0495 0.36424,-0.1427 0.63143,-0.42712 l 0.48581,-0.51712 -0.34968,-0.13418 c -0.19232,-0.0738 -0.59557,-0.0725 -0.89611,0.003 l -0.54643,0.13714 0.15628,-0.25285 0.15627,-0.25286 -0.24782,0.15317 c -0.13631,0.0842 -0.20014,0.23033 -0.14185,0.32464 0.0583,0.0943 -0.1185,0.3973 -0.39288,0.67329 l -0.49887,0.50181 0.1678,0.44907 0.16779,0.44907 0.5547,0.13922 c 0.30509,0.0766 0.50617,0.21775 0.44685,0.31373 -0.10673,0.17269 0.75799,0.65975 1.17132,0.65975 h 0.2142 l -0.13082,-0.21167 c -0.15409,-0.24934 0.0498,-0.25032 0.635,-0.003 l 0.42334,0.17886 -0.74084,0.16648 -0.74083,0.16648 1.16417,0.25103 c 0.64029,0.13807 1.21655,0.26172 1.28058,0.27479 0.064,0.0131 0.2069,-0.0662 0.3175,-0.17609 z m 0.73025,-6.13614 v -0.19765 l 0.58208,0.0964 0.58209,0.0964 -0.2917,-0.19256 -0.2917,-0.19256 0.15396,-0.24912 0.15396,-0.24912 0.38131,0.34507 0.38131,0.34508 0.13934,-0.22545 c 0.0766,-0.124 0.23458,-0.22546 0.351,-0.22546 h 0.21167 l -0.13683,0.22139 -0.13682,0.22138 0.49475,-0.068 c 0.27211,-0.0374 0.60965,-0.14007 0.75009,-0.22817 l 0.25534,-0.16017 -0.11102,-0.28931 -0.11102,-0.28931 0.22609,-0.13973 0.2261,-0.13974 0.001,0.38291 0.001,0.38291 0.40989,-0.6218 c 0.22544,-0.34199 0.36161,-0.6999 0.30261,-0.79537 -0.059,-0.0955 0.0391,-0.32001 0.21812,-0.49898 0.17897,-0.17897 0.42425,-0.72593 0.54507,-1.21546 0.12081,-0.48953 0.48414,-1.72105 0.80738,-2.73672 l 0.58772,-1.84665 -0.30292,-0.11625 c -0.1666,-0.0639 -0.35278,-0.0664 -0.41373,-0.005 -0.0609,0.061 3.1e-4,0.11081 0.13613,0.11081 0.13582,0 0.24694,0.10319 0.24694,0.22931 0,0.12612 -0.11311,0.1916 -0.25135,0.14552 -0.13825,-0.0461 -0.42618,0.091 -0.63985,0.30471 l -0.3885,0.3885 0.20683,0.38646 0.20682,0.38646 -0.78406,-0.0166 -0.78406,-0.0166 0.0582,0.276 0.0582,0.276 -0.1923,-0.11884 -0.1923,-0.11885 -0.65961,0.77222 c -0.36279,0.42472 -0.65962,0.868 -0.65962,0.98506 0,0.11706 -0.0578,0.15506 -0.12838,0.0845 -0.21548,-0.21548 -2.27939,1.77841 -2.32367,2.24485 -0.0129,0.13593 -0.0394,0.39002 -0.0589,0.56465 l -0.0355,0.3175 -0.18805,-0.29703 -0.18806,-0.29703 -0.003,0.50869 c -0.002,0.27979 -0.0698,0.77064 -0.15088,1.09078 l -0.14749,0.58209 H 111.41 c 0.24641,0 0.44801,-0.0889 0.44801,-0.19765 z m -11.66788,-1.18816 c -0.234164,-0.52935 -0.391268,-1.06591 -0.349123,-1.19235 0.04214,-0.12643 0.258613,0.21143 0.481043,0.75081 0.22243,0.53937 0.48576,0.98068 0.58518,0.98068 0.0994,0 0.12684,-0.0873 0.0609,-0.1939 -0.0659,-0.10665 -0.0333,-0.42146 0.0724,-0.69957 l 0.19225,-0.50567 -0.72981,-1.75996 c -0.4014,-0.96798 -0.677737,-1.81205 -0.614077,-1.87571 0.06366,-0.0637 0.117207,0.0192 0.118987,0.18412 l 0.003,0.29986 0.22229,-0.3175 0.22229,-0.3175 -0.14237,0.50275 -0.14238,0.50276 0.2146,-0.13263 0.21461,-0.13263 -0.0889,0.37071 c -0.0489,0.20389 -0.003,0.50197 0.10191,0.66241 l 0.19075,0.2917 0.22609,-0.13973 0.22609,-0.13973 -0.13622,-0.36364 -0.13622,-0.36364 0.35713,0.2905 c 0.19642,0.15978 0.35713,0.41873 0.35713,0.57544 v 0.28494 l -0.29609,-0.11362 -0.29609,-0.11362 -0.15995,0.2588 -0.15994,0.2588 0.24437,-0.15103 0.24437,-0.15103 0.0251,0.38291 c 0.0138,0.2106 0.008,0.47047 -0.0119,0.57749 -0.0204,0.10702 0.11019,0.0724 0.2901,-0.0769 0.17992,-0.14931 0.27234,-0.36011 0.20539,-0.46843 -0.14754,-0.23873 0.32104,-0.84891 0.54542,-0.71024 0.0877,0.0542 0.33881,-0.11356 0.5581,-0.37275 l 0.3987,-0.47126 -0.47625,0.40322 c -0.26194,0.22178 -0.47687,0.31703 -0.47762,0.21167 -0.002,-0.25846 1.52239,-1.56739 1.82522,-1.56739 0.13254,0 0.35148,-0.13314 0.48653,-0.29586 l 0.24554,-0.29587 0.61313,0.0424 c 0.33721,0.0234 0.6081,-0.0102 0.60197,-0.0745 -0.006,-0.0644 0.007,-0.16463 0.0296,-0.22284 0.0224,-0.0582 0.0802,-0.31672 0.12842,-0.57448 l 0.0876,-0.46865 -0.31501,0.12088 -0.31501,0.12088 v -0.2468 -0.24681 l 0.24763,0.15305 0.24764,0.15305 -0.14222,-0.40514 -0.14222,-0.40514 0.42375,0.4997 c 0.6117,0.72133 0.52187,0.30389 -0.114,-0.52978 -0.29577,-0.38777 -0.65296,-0.68251 -0.79375,-0.65498 l -0.256,0.0501 0.0546,-0.33745 0.0546,-0.33745 -0.65099,-0.4989 c -0.35804,-0.2744 -0.79596,-0.52018 -0.97315,-0.54619 l -0.32216,-0.0473 0.12881,0.51322 0.12881,0.51321 h -0.17337 c -0.0953,0 -0.27438,-0.10101 -0.39784,-0.22447 l -0.22447,-0.22447 -1.06845,1.44156 c -0.58766,0.79285 -1.18773,1.70349 -1.33351,2.02363 -0.14578,0.32015 -0.38474,0.58209 -0.531032,0.58209 h -0.265985 l -0.226253,1.05498 -0.226253,1.05498 0.246188,1.06654 0.246188,1.06655 -0.224774,0.22477 -0.224773,0.22478 -0.371721,-0.97334 -0.371721,-0.97334 0.128912,-1.23336 0.128911,-1.23336 -0.908971,-0.84118 c -0.499934,-0.46264 -0.978757,-0.95409 -1.06405,-1.0921 l -0.15508,-0.25092 h 0.178081 c 0.09794,0 0.643235,0.45244 1.211757,1.00541 l 1.033677,1.00542 -0.134289,-0.37042 -0.134289,-0.37041 h 0.205024 c 0.398213,0 0.19866,-0.39674 -0.271227,-0.53923 -0.261937,-0.0794 -0.66675,-0.30979 -0.899583,-0.51189 -0.232833,-0.20211 -0.583867,-0.42393 -0.780075,-0.49295 l -0.356741,-0.12548 -0.08308,0.24924 -0.08308,0.24924 -0.724345,-0.61271 c -0.398389,-0.33699 -0.700531,-0.69263 -0.671427,-0.7903 0.0291,-0.0977 -0.04796,-0.17759 -0.171242,-0.17759 h -0.224159 l 0.152261,-0.26458 0.152261,-0.26459 -0.192686,0.17788 c -0.105977,0.0978 -0.202395,0.33596 -0.214263,0.52917 -0.01187,0.19321 -0.04517,0.58941 -0.07402,0.88045 l -0.05244,0.52917 -0.166542,-0.52917 -0.166542,-0.52916 0.110727,2.2225 c 0.125554,2.5201 0.223302,2.80615 1.110062,3.24853 l 0.636159,0.31736 v -0.2359 -0.2359 l 0.264584,0.35794 c 0.14552,0.19688 0.693208,0.59024 1.217083,0.87415 0.523875,0.2839 0.928687,0.61728 0.899583,0.74084 -0.0291,0.12355 0.01852,0.21337 0.105834,0.19958 0.08731,-0.0138 0.283434,-0.0138 0.435825,0 l 0.277075,0.0251 -0.154709,0.26459 c -0.08509,0.14552 0.04006,0.0941 0.278108,-0.1143 l 0.432818,-0.37888 0.114185,0.43665 c 0.0628,0.24015 0.114397,0.49525 0.114655,0.56688 3.86e-4,0.1071 0.460824,0.48029 0.606814,0.49182 0.0226,0.002 -0.15057,-0.42987 -0.38473,-0.95923 z m 10.48107,-3.18234 c 0.0707,-0.18414 0.12848,-0.51752 0.12848,-0.74083 0,-0.22331 0.0883,-0.40602 0.19614,-0.40602 0.10788,0 0.23971,-0.16669 0.29295,-0.37042 l 0.0968,-0.37042 0.033,0.52917 0.033,0.52917 0.28474,-0.52917 c 0.1566,-0.29104 0.3564,-1.14829 0.44399,-1.905 l 0.15925,-1.37583 0.17204,0.42333 0.17204,0.42333 -0.10879,-0.84666 c -0.0598,-0.46567 -0.16248,-1.29911 -0.2281,-1.85209 -0.0656,-0.55297 -0.14972,-1.00541 -0.18688,-1.00541 -0.79129,0 -4.74691,3.16341 -4.74691,3.79622 v 0.31964 l 0.3295,-0.47043 c 0.18123,-0.25874 0.42942,-0.47043 0.55153,-0.47043 0.12212,0 0.50967,-0.24204 0.86124,-0.53787 0.81234,-0.68354 0.99807,-0.52048 0.34627,0.304 l -0.50104,0.63378 -0.36297,0.0117 -0.36297,0.0117 -0.23416,0.43753 -0.23415,0.43753 0.37088,0.56789 c 0.493,0.75488 1.60111,1.85067 1.8076,1.78751 l 0.1647,-0.0504 -0.12086,0.31496 -0.12086,0.31496 h 0.2468 0.24681 l -0.13082,0.21167 -0.13082,0.21166 h 0.20152 c 0.11083,0 0.25932,-0.15066 0.32999,-0.33481 z"
       id="path12"
       clip-path="url(#clipPath13)"
       transform="matrix(0.99278047,0,0,0.994419,-86.817212,-119.70571)" /></g></svg>
