<?xml version="1.0" encoding="UTF-8" standalone="no"?>
<!-- Uploaded to: SVG Repo, www.svgrepo.com, Generator: SVG Repo Mixer Tools -->

<svg
   fill="#000000"
   height="600"
   width="600"
   version="1.1"
   id="Layer_1"
   viewBox="0 0 384.00225 384.00225"
   xml:space="preserve"
   sodipodi:docname="lotus_network.svg"
   inkscape:version="1.3.2 (091e20e, 2023-11-25, custom)"
   xmlns:inkscape="http://www.inkscape.org/namespaces/inkscape"
   xmlns:sodipodi="http://sodipodi.sourceforge.net/DTD/sodipodi-0.dtd"
   xmlns="http://www.w3.org/2000/svg"
   xmlns:svg="http://www.w3.org/2000/svg"><defs
   id="defs2" /><sodipodi:namedview
   id="namedview2"
   pagecolor="#ffffff"
   bordercolor="#666666"
   borderopacity="1.0"
   inkscape:showpageshadow="2"
   inkscape:pageopacity="0.0"
   inkscape:pagecheckerboard="0"
   inkscape:deskcolor="#d1d1d1"
   inkscape:zoom="1.03875"
   inkscape:cx="324.4284"
   inkscape:cy="323.94705"
   inkscape:window-width="1920"
   inkscape:window-height="1027"
   inkscape:window-x="1912"
   inkscape:window-y="-8"
   inkscape:window-maximized="1"
   inkscape:current-layer="g1" />
<g
   id="g2"
   transform="matrix(0.76099319,0,0,0.76095694,69.554318,63.138051)">
	
<g
   id="g1"
   transform="matrix(0.98276979,0,0,0.98261904,-79.879645,-79.738867)"
   style="stroke:none;stroke-opacity:1">
		
	<ellipse
   style="display:inline;fill:#2e9d91;fill-opacity:1;stroke:none;stroke-width:8.84756;stroke-linejoin:miter;stroke-dasharray:none;stroke-opacity:1"
   id="path31"
   cx="245.00507"
   cy="253.48819"
   rx="252.30301"
   ry="252.35463" /><path
   d="M 458.90365,210.04126 C 458.5468,198.77833 449.4544,189.71217 438.18756,189.3268 l -2.96676,-0.0358 c -6.91705,0 -26.1222,0.67036 -49.86939,5.29288 -4.25033,-32.09856 -12.85802,-54.8885 -13.57086,-56.70741 -2.111,-5.44252 -6.36134,-9.7792 -11.75241,-12.01185 -2.62413,-1.08417 -5.40529,-1.62667 -8.1865,-1.62667 -2.93834,0 -5.86908,0.60605 -8.61439,1.81141 -1.56859,0.69211 -18.8483,8.48102 -40.40595,23.66007 -18.89093,-35.95027 -40.74777,-59.125591 -42.35232,-60.801579 -4.04308,-4.222965 -9.62723,-6.605276 -15.46039,-6.605276 -5.83314,0 -11.41729,2.382311 -15.45368,6.597761 -1.60459,1.67598 -23.49065,24.887224 -42.3883,60.872634 -21.50833,-15.13646 -38.8081,-23.03986 -40.37001,-23.73114 -2.74527,-1.20536 -5.6769,-1.81138 -8.6144,-1.81138 -2.78119,0 -5.56241,0.54166 -8.18649,1.62666 -5.39106,2.23267 -9.63476,6.57684 -11.7524,12.01184 -0.70618,1.81892 -9.31385,24.60134 -13.56339,56.70742 -23.761448,-4.6292 -42.959112,-5.28539 -49.876163,-5.28539 l -2.980933,0.0358 c -11.260176,0.38535 -20.360086,9.45154 -20.716092,20.71446 -0.128699,4.00898 -2.403468,98.92798 56.615172,157.96764 53.920096,53.93315 138.532826,56.66487 154.948406,56.66487 l 2.19626,-0.0286 c 0.0427,0 0.0853,0.0286 0.12866,0.0286 0.0425,0 0.0855,-0.0286 0.12875,-0.0286 l 2.19615,0.0286 c 16.41646,0 101.02915,-2.73172 154.94831,-56.66487 59.03784,-59.03298 56.76308,-153.95196 56.63521,-157.96764 z M 351.84164,145.63014 c 0,0 8.57174,22.45473 12.487,53.96822 -12.39423,3.474 -25.27319,8.13916 -38.05935,14.37999 -3.31604,-15.92808 -8.28678,-30.85727 -14.1417,-44.51003 21.85018,-15.8353 39.71405,-23.83818 39.71405,-23.83818 z m -213.66779,0 c 0,0 17.8639,7.96026 39.72828,23.79557 -5.86915,13.69537 -10.86076,28.68223 -14.17679,44.66717 -12.78619,-6.24166 -25.64424,-10.97789 -38.04519,-14.45858 3.91445,-31.52765 12.4937,-54.00416 12.4937,-54.00416 z m -35.3141,207.24981 C 49.702618,299.71083 52.491349,210.71917 52.491349,210.71917 c 0,0 0.805613,-0.0218 2.303182,-0.0218 11.210053,0 61.172319,1.78298 105.450129,25.64294 -0.51311,5.62812 -0.81312,11.3415 -0.81312,17.14765 0,65.87314 35.74192,121.5182 56.21568,148.0171 -30.67094,-3.64454 -78.94922,-14.77877 -112.78747,-48.62521 z m 142.6185,49.89576 c -0.41366,-0.13544 -0.81981,-0.26418 -1.34795,-0.45644 -7.5305,-8.21021 -63.3041,-71.68684 -63.3041,-148.83041 0,-82.72907 64.18158,-149.79323 64.18158,-149.79323 0,0 64.18156,67.06416 64.18156,149.79323 0,79.38296 -58.9334,144.16526 -63.71109,149.28685 z m 141.68414,-49.89576 c -33.83823,33.84644 -82.11648,44.98065 -112.78819,48.626 20.467,-26.49887 56.20899,-82.14395 56.20899,-148.01709 0,-5.8421 -0.29919,-11.59143 -0.82736,-17.25467 44.27772,-23.83819 94.26163,-25.54343 105.46413,-25.54343 1.4976,0 2.30319,0.0218 2.30319,0.0218 0,0 2.78872,88.99834 -50.36076,142.16749 z"
   id="path1"
   style="opacity:1;fill:#000000;fill-opacity:1;stroke:none;stroke-width:0;stroke-linejoin:miter;stroke-dasharray:none;stroke-dashoffset:0;stroke-opacity:1"
   inkscape:label="lotus" /><path
   style="opacity:1;vector-effect:non-scaling-stroke;fill:#ffffff;fill-opacity:1;stroke:none;stroke-width:0.962696;stroke-linejoin:miter;stroke-dasharray:none;stroke-dashoffset:0;stroke-opacity:1;-inkscape-stroke:hairline"
   d="M 250.19042,470.24613 C 185.04581,458.7676 138.60921,430.54981 110.52879,385.37901 90.406005,353.00904 78.733811,311.38254 75.554355,260.64982 l -0.618411,-9.86763 h 8.779358 c 31.374128,0 76.184018,10.24072 105.995048,24.22379 l 10.21137,4.78971 0.009,18.94692 c 0.01,20.29552 0.90692,29.38968 4.75596,48.20572 7.48202,36.57589 26.91822,79.36634 52.00073,114.48406 3.90012,5.46051 7.09112,10.11755 7.09112,10.34898 0,0.68329 -2.77955,0.36925 -13.58816,-1.53524 z"
   id="path45"
   transform="matrix(0.855756,0,0,0.85592805,-11.721719,-3.2902307)" /><path
   style="opacity:1;vector-effect:non-scaling-stroke;fill:#ffffff;fill-opacity:1;stroke:none;stroke-width:0.962696;stroke-linejoin:miter;stroke-dasharray:none;stroke-dashoffset:0;stroke-opacity:1;-inkscape-stroke:hairline"
   d="m 201.77839,252.0419 c -5.09235,-2.68839 -20.16998,-8.6561 -29.93723,-11.84913 -5.29483,-1.73094 -9.89109,-3.29354 -10.21392,-3.47243 -1.58897,-0.88053 5.55387,-35.91214 10.71968,-52.57398 2.81258,-9.07169 2.97061,-9.3288 5.21031,-8.47727 6.68944,2.54332 40.80677,23.40747 42.34434,25.8953 0.36431,0.58947 -1.26503,6.16454 -3.62075,12.38906 -3.79954,10.03953 -8.57905,25.83436 -10.90271,36.03016 l -0.80531,3.53354 z"
   id="path46"
   transform="matrix(0.855756,0,0,0.85592805,-11.721719,-3.2902307)" /><path
   style="opacity:1;vector-effect:non-scaling-stroke;fill:#ffffff;fill-opacity:1;stroke:none;stroke-width:0.962696;stroke-linejoin:miter;stroke-dasharray:none;stroke-dashoffset:0;stroke-opacity:1;-inkscape-stroke:hairline"
   d="m 292.27056,465.24428 c -34.3193,-41.62631 -57.52276,-90.55227 -64.50003,-136.0024 -7.82079,-50.94484 5.54306,-105.1664 39.258,-159.28263 6.98724,-11.2153 22.452,-32.40962 29.77882,-40.81162 l 3.23031,-3.70435 6.23768,7.55514 c 9.6906,11.73733 14.38045,18.1382 23.50436,32.07954 33.4331,51.08579 48.68631,104.90591 43.70035,154.19429 -4.76147,47.0691 -27.62818,98.59993 -63.59594,143.31535 -4.08995,5.08466 -8.07025,9.77098 -8.8451,10.41406 -1.17297,0.97347 -2.64089,-0.32519 -8.76845,-7.75738 z"
   id="path47"
   transform="matrix(0.855756,0,0,0.85592805,-11.721719,-3.2902307)" /><path
   style="opacity:1;vector-effect:non-scaling-stroke;fill:#ffffff;fill-opacity:1;stroke:none;stroke-width:0.962696;stroke-linejoin:miter;stroke-dasharray:none;stroke-dashoffset:0;stroke-opacity:1;-inkscape-stroke:hairline"
   d="m 393.81938,246.93191 c -1.37164,-6.97195 -7.78169,-27.35703 -11.73835,-37.33001 -1.52844,-3.85254 -2.77898,-7.21909 -2.77898,-7.48123 0,-1.02799 25.11919,-16.93198 34.89116,-22.09102 l 10.34243,-5.46021 1.04964,2.72731 c 3.5992,9.35186 10.90593,40.79933 12.82421,55.19422 l 0.57731,4.33213 -11.79183,3.72585 c -6.48552,2.04921 -15.69076,5.44179 -20.4561,7.53905 -12.62916,5.5582 -11.58006,5.65207 -12.91949,-1.15609 z"
   id="path48"
   transform="matrix(0.855756,0,0,0.85592805,-11.721719,-3.2902307)" /><path
   style="opacity:1;vector-effect:non-scaling-stroke;fill:#ffffff;fill-opacity:1;stroke:none;stroke-width:0.962696;stroke-linejoin:miter;stroke-dasharray:none;stroke-dashoffset:0;stroke-opacity:1;-inkscape-stroke:hairline"
   d="m 337.01021,470.45363 c 31.30703,-43.61355 49.34929,-81.75972 58.13859,-122.92054 3.94674,-18.4828 4.82317,-27.15436 4.83745,-47.86215 L 400,279.72695 l 9.56573,-4.49936 c 30.06933,-14.14349 74.90949,-24.4454 106.40114,-24.4454 h 8.7022 v 4.19233 c 0,8.12032 -1.99803,29.15633 -3.89941,41.05436 -8.86524,55.4749 -31.24723,100.30516 -63.71844,127.62549 -29.62738,24.92763 -69.94433,41.53363 -116.67157,48.05543 -4.6094,0.64334 -4.70687,0.60699 -3.36944,-1.25617 z"
   id="path49"
   transform="matrix(0.855756,0,0,0.85592805,-11.721719,-3.2902307)" /></g></g>
</svg>
