<?xml version="1.0" standalone="no"?>
<!DOCTYPE svg PUBLIC "-//W3C//DTD SVG 20010904//EN"
 "http://www.w3.org/TR/2001/REC-SVG-20010904/DTD/svg10.dtd">
<svg version="1.0" xmlns="http://www.w3.org/2000/svg"
 width="1274.000000pt" height="1280.000000pt" viewBox="0 0 1274.000000 1280.000000"
 preserveAspectRatio="xMidYMid meet">
<metadata>
Created by potrace 1.15, written by Peter Selinger 2001-2017
</metadata>
<g transform="translate(0.000000,1280.000000) scale(0.100000,-0.100000)"
fill="#335449" stroke="none" opacity="0.2">
<path d="M6263 12667 c-67 -132 -267 -485 -407 -717 -282 -467 -887 -1438
-918 -1475 -21 -23 -59 -53 -85 -66 -42 -21 -61 -24 -158 -23 -229 2 -460 74
-1765 548 -189 69 -345 124 -347 122 -2 -1 49 -252 113 -557 l117 -554 -12
-365 c-11 -365 -21 -516 -42 -643 -9 -54 -16 -71 -35 -84 -96 -63 -814 -264
-1459 -408 -203 -46 -1229 -255 -1249 -255 -20 0 19 -47 227 -277 892 -989
1536 -1663 1805 -1893 l53 -46 -113 -89 c-162 -129 -345 -283 -482 -404 -90
-81 -125 -119 -146 -161 -57 -113 -281 -434 -414 -595 -37 -44 -155 -169 -263
-277 -108 -109 -194 -201 -190 -205 4 -4 92 -10 195 -15 103 -4 216 -12 252
-17 151 -24 593 -167 1111 -360 162 -60 353 -128 425 -151 l131 -42 -18 -58
c-91 -294 -115 -770 -99 -1985 4 -265 1 -407 -8 -499 -7 -70 -12 -130 -10
-131 2 -2 48 12 103 30 55 19 199 64 320 100 471 142 750 243 1105 398 523
229 969 458 1131 582 l46 35 13 -48 c69 -250 324 -726 732 -1362 161 -252 235
-381 321 -560 39 -80 72 -147 74 -149 8 -10 44 55 217 404 119 238 214 415
267 495 149 227 300 555 513 1117 l62 161 99 -80 c210 -168 378 -266 730 -427
814 -373 1978 -842 2010 -809 4 3 -17 52 -45 108 -58 115 -90 226 -90 309 0
31 7 108 16 171 12 83 16 192 17 390 0 297 -8 429 -53 930 -16 179 -34 420
-39 536 -8 165 -14 224 -30 270 -11 32 -19 59 -18 60 1 1 36 13 77 27 41 14
188 66 325 115 349 125 866 297 1015 337 69 19 231 59 360 90 293 69 330 81
330 105 0 12 -68 78 -183 178 -200 175 -264 240 -308 317 -32 55 -81 198 -99
290 -97 496 -362 1086 -588 1313 l-68 67 335 316 c435 410 635 593 1145 1049
381 340 417 375 395 381 -13 5 -355 60 -759 124 -784 123 -741 115 -1578 321
-255 63 -470 114 -477 114 -8 0 -16 4 -20 9 -5 9 -61 500 -87 766 -17 183 -17
850 1 975 7 52 35 210 61 350 66 349 64 340 48 340 -7 0 -69 -57 -138 -126
-191 -193 -246 -233 -397 -292 -250 -97 -667 -224 -1087 -332 -269 -68 -384
-90 -481 -90 -86 0 -121 19 -160 86 -16 27 -186 306 -378 619 -193 314 -395
649 -449 745 -110 195 -411 790 -449 888 -13 34 -26 62 -29 62 -3 0 -33 -55
-67 -123z m117 -1102 c92 -46 199 -164 323 -353 93 -142 173 -286 376 -676
l181 -349 -168 -176 c-200 -209 -251 -272 -369 -452 -95 -145 -168 -284 -287
-547 -82 -180 -135 -274 -151 -269 -16 5 -94 169 -164 343 -121 303 -262 532
-460 749 -139 151 -241 323 -241 403 1 141 267 683 522 1060 194 286 287 343
438 267z m2818 -1417 c26 -13 57 -38 70 -57 85 -129 123 -597 81 -1016 -13
-139 -33 -196 -87 -256 -54 -60 -133 -100 -437 -220 -281 -111 -622 -282 -805
-404 -284 -188 -390 -215 -390 -98 0 18 20 96 45 174 58 179 114 383 172 619
40 165 45 201 50 330 2 86 0 151 -6 159 -8 12 -16 10 -51 -14 -103 -71 -169
-182 -283 -470 -84 -212 -199 -541 -252 -720 -26 -88 -66 -196 -88 -240 -75
-151 -232 -400 -619 -982 -212 -320 -388 -588 -391 -595 -2 -7 -7 -11 -10 -8
-10 10 -502 829 -582 970 -161 284 -190 353 -314 755 -105 341 -185 642 -206
769 -23 143 -101 287 -226 421 -65 68 -135 111 -169 100 -18 -6 -23 -16 -35
-77 -6 -33 17 -192 41 -287 118 -451 146 -593 147 -756 1 -150 -33 -207 -101
-172 -15 8 -70 41 -122 74 -308 196 -763 418 -1053 514 -178 59 -210 74 -265
130 -141 143 -165 404 -82 898 49 291 77 370 148 418 49 32 120 45 292 50 127
4 176 2 275 -15 649 -111 1482 -637 1949 -1229 35 -46 112 -155 171 -243 97
-146 214 -290 236 -290 28 0 163 171 343 432 60 87 154 213 211 280 115 138
337 359 434 433 315 240 919 512 1352 609 168 38 239 45 382 41 110 -3 135 -7
175 -27z m-6080 -1893 c612 -72 1203 -294 1757 -660 169 -112 249 -179 469
-395 278 -272 848 -870 843 -883 -2 -7 -148 -53 -323 -104 -176 -50 -580 -166
-899 -259 -639 -184 -581 -174 -820 -148 -616 65 -1105 195 -1215 321 -36 41
-39 79 -10 139 61 125 224 208 791 404 178 62 350 121 382 132 66 23 71 37 32
97 -106 168 -642 694 -925 907 -127 95 -154 105 -270 102 l-100 -3 136 -145
c360 -385 522 -619 532 -767 4 -58 2 -64 -25 -92 -35 -35 -87 -51 -165 -51
-143 0 -443 -62 -624 -128 -45 -16 -179 -74 -298 -127 l-217 -98 -42 40 c-23
22 -148 139 -277 260 -388 364 -608 618 -714 822 -118 229 -57 319 299 435
351 114 730 193 1043 216 152 11 479 3 640 -15z m6902 5 c679 -35 1297 -191
1464 -370 40 -43 46 -55 46 -92 0 -57 -38 -135 -135 -278 -249 -369 -572 -714
-858 -918 -87 -61 -161 -112 -164 -112 -4 0 -108 51 -232 114 -322 162 -528
226 -794 246 -155 11 -200 23 -226 57 -27 33 -26 56 4 120 46 99 217 261 538
507 214 164 224 182 116 193 -44 4 -72 -1 -145 -25 -337 -113 -1205 -565
-1335 -695 -37 -37 -39 -35 106 -118 189 -108 364 -186 591 -263 331 -112 418
-148 548 -224 82 -49 161 -126 168 -164 2 -13 1 -37 -4 -55 -35 -134 -605
-365 -1071 -434 -179 -26 -427 -26 -552 0 -49 11 -452 130 -895 266 -443 136
-835 256 -872 268 -38 11 -68 23 -68 27 0 3 33 33 73 65 39 33 209 195 377
360 571 562 661 642 897 798 476 313 1052 554 1603 671 186 39 281 49 595 64
17 1 118 -3 225 -8z m-3839 -2161 c-6 -107 -13 -347 -16 -534 -14 -798 -31
-1058 -77 -1205 -82 -258 -289 -707 -441 -953 -158 -254 -335 -477 -392 -491
-94 -24 -194 145 -245 413 -33 176 -40 313 -33 683 l6 348 -39 0 c-61 0 -171
-34 -384 -119 -501 -201 -868 -271 -970 -184 -26 22 -30 31 -30 77 0 92 62
234 176 406 173 261 471 554 739 725 140 91 1709 1034 1713 1031 1 -2 -2 -91
-7 -197z m797 -168 l738 -369 129 -105 c452 -366 884 -794 1045 -1032 256
-379 43 -479 -598 -279 -97 30 -571 204 -677 248 l-35 15 0 -327 c-1 -845 -42
-1129 -170 -1157 -72 -16 -197 87 -327 271 -197 278 -421 720 -533 1054 -68
201 -85 305 -230 1408 -48 365 -83 592 -96 626 -3 9 -1 16 5 16 6 0 343 -166
749 -369z m3769 230 c121 -164 184 -263 251 -397 104 -209 190 -477 231 -725
13 -76 -3 -155 -45 -226 -81 -139 -255 -304 -430 -409 -111 -67 -419 -212
-529 -249 -54 -18 -110 -29 -171 -32 -229 -14 -358 78 -928 658 -416 423 -649
670 -639 679 10 10 229 35 488 55 110 9 246 23 303 31 428 63 775 246 1251
663 58 50 107 91 110 91 3 -1 52 -63 108 -139z m-8346 -345 c392 -188 828
-296 1254 -311 94 -4 206 -11 250 -16 87 -11 165 -40 165 -61 0 -8 -24 -43
-54 -79 -51 -61 -148 -150 -369 -338 -185 -157 -412 -412 -567 -636 -111 -161
-163 -220 -224 -255 -43 -25 -62 -30 -119 -30 -167 0 -503 110 -842 276 -228
112 -305 175 -320 264 -19 113 113 437 292 717 77 122 381 533 393 533 4 0 67
-29 141 -64z m5694 -1889 c448 -254 620 -324 925 -379 121 -21 458 -16 600 10
64 11 124 24 134 28 17 7 18 4 12 -27 -4 -19 -11 -97 -17 -174 -11 -147 -8
-255 17 -828 20 -436 9 -570 -58 -700 -135 -265 -505 -214 -1278 175 -241 121
-369 203 -417 266 -58 77 -64 114 -73 467 -10 389 -17 522 -35 732 -12 135
-61 474 -80 561 -7 28 -35 41 270 -131z m-3338 16 c-4 -54 -15 -138 -26 -188
-52 -231 -81 -389 -90 -489 -16 -159 -13 -401 5 -551 21 -167 15 -285 -15
-343 -31 -61 -98 -122 -226 -207 -129 -85 -211 -130 -395 -215 -326 -150 -656
-263 -812 -277 -59 -5 -71 -3 -110 20 -123 73 -266 283 -309 456 -22 90 -54
365 -70 611 -13 200 -7 590 12 753 12 102 14 108 33 104 506 -112 798 -114
1141 -5 124 39 323 139 475 238 143 92 331 190 366 190 l27 0 -6 -97z m1591
-137 c34 -50 113 -230 166 -381 26 -71 63 -168 82 -215 103 -243 308 -542 538
-787 l86 -91 -111 -239 c-148 -317 -262 -540 -300 -586 -36 -44 -243 -184
-344 -232 -186 -90 -296 -67 -455 94 -42 42 -196 223 -343 403 -147 180 -293
355 -324 388 l-56 61 95 97 c310 318 556 707 713 1132 94 252 169 390 213 390
9 0 27 -16 40 -34z"/>
</g>
</svg>
